{"title":"The Beast Within (1982) BRRIP 1080P","uid":12856364,"size":5801026727,"categoryP":"video","categoryS":"hd___movies","magnet":"?xt=urn:btih:0e847664062232112e67ba07970521a057ed2d07&amp;dn=The+Beast+Within+%281982%29+BRRIP+1080P&amp;tr=udp%3A%2F%2Ftracker.leechers-paradise.org%3A6969&amp;tr=udp%3A%2F%2Fzer0day.ch%3A1337&amp;tr=udp%3A%2F%2Fopen.demonii.com%3A1337&amp;tr=udp%3A%2F%2Ftracker.coppersurfer.tk%3A6969&amp;tr=udp%3A%2F%2Fexodus.desync.com%3A6969","seeders":0,"leechers":1,"uploader":"jmanwf","files":3,"time":1448674239,"description":"Based on the novel by Edward Levy, this horror film tells about a woman who is raped by a vicious creature in Mississippi and bears a child from the incident. Although he seems like a normal boy, he reaches his 17th year and slowly transforms into a terrifying, cannibalistic monster.\r\n\r\n\r\nVideo\r\nID : 1\r\nFormat : AVC\r\nFormat/Info : Advanced Video Codec\r\nFormat profile :   \r\nFormat settings, CABAC : Yes\r\nFormat settings, ReFrames : 3 frames\r\nCodec ID : avc1\r\nCodec ID/Info : Advanced Video Coding\r\nDuration : 1h 38mn\r\nBit rate mode : Variable\r\nBit rate : 7 098 Kbps\r\nMaximum bit rate : 30.0 Mbps\r\nWidth : 1 920 pixels\r\nHeight : 1 080 pixels\r\nDisplay aspect ratio : 16:9\r\nFrame rate mode : Constant\r\nFrame rate : 23.976 fps\r\nColor space : YUV\r\nChroma subsampling : 4:2:0\r\nBit depth : 8 bits\r\nScan type : Progressive\r\nBits/(Pixel*Frame) : 0.143\r\nStream size : 4.88 GiB (91%)\r\nTitle : h264 1920x1080 16/9\r\n\r\nAudio #1\r\nID : 2\r\nFormat : AC-3\r\nFormat/Info : Audio Coding 3\r\nMode extension : CM (complete main)\r\nFormat settings, Endianness : Big\r\nCodec ID : ac-3\r\nDuration : 1h 38mn\r\nBit rate mode : Constant\r\nBit rate : 224 Kbps\r\nChannel(s) : 2 channels\r\nChannel positions : Front: L R\r\nSampling rate : 48.0 KHz\r\nBit depth : 16 bits\r\nCompression mode : Lossy\r\nStream size : 158 MiB (3%)\r\nTitle : ac3 48000Hz 2Ch.\r\nLanguage : English\r\n\r\nAudio #2\r\nID : 3\r\nFormat : AC-3\r\nFormat/Info : Audio Coding 3\r\nMode extension : CM (complete main)\r\nFormat settings, Endianness : Big\r\nCodec ID : ac-3\r\nDuration : 1h 38mn\r\nDuration_FirstFrame : 42ms\r\nBit rate mode : Constant\r\nBit rate : 256 Kbps\r\nChannel(s) : 2 channels\r\nChannel positions : Front: L R\r\nSampling rate : 48.0 KHz\r\nBit depth : 16 bits\r\nCompression mode : Lossy\r\nStream size : 180 MiB (3%)\r\nTitle : ac3 48000Hz 2Ch.\r\nLanguage : English\r\n\r\nAudio #3\r\nID : 4\r\nFormat : AC-3\r\nFormat/Info : Audio Coding 3\r\nMode extension : CM (complete main)\r\nFormat settings, Endianness : Big\r\nCodec ID : ac-3\r\nDuration : 1h 38mn\r\nDuration_FirstFrame : 42ms\r\nBit rate mode : Constant\r\nBit rate : 256 Kbps\r\nChannel(s) : 2 channels\r\nChannel positions : Front: L R\r\nSampling rate : 48.0 KHz\r\nBit depth : 16 bits\r\nCompression mode : Lossy\r\nStream size : 180 MiB (3%)\r\nTitle : ac3 48000Hz 2Ch.\r\nLanguage : English\r\n\r\n\r\n\r\n\r\nINCLUDES DIRECTORIES COMMENTARY \r\n \nhttp://www.imdb.com/title/tt0083629/","torrent":{"xt":"urn:btih:0e847664062232112e67ba07970521a057ed2d07","amp;dn":"The+Beast+Within+%281982%29+BRRIP+1080P","amp;tr":["udp%3A%2F%2Ftracker.leechers-paradise.org%3A6969","udp%3A%2F%2Fzer0day.ch%3A1337","udp%3A%2F%2Fopen.demonii.com%3A1337","udp%3A%2F%2Ftracker.coppersurfer.tk%3A6969","udp%3A%2F%2Fexodus.desync.com%3A6969"],"infoHash":"0e847664062232112e67ba07970521a057ed2d07","infoHashBuffer":{"type":"Buffer","data":[14,132,118,100,6,34,50,17,46,103,186,7,151,5,33,160,87,237,45,7]},"announce":[],"urlList":[]}}